<svg width="139" height="23" viewBox="0 0 139 23" fill="none" xmlns="http://www.w3.org/2000/svg">
<path d="M80.9026 12.5849V0.10643H70.6891L69.9868 7.92109C69.7704 10.1671 69.4064 11.6988 68.8707 12.5849H67.1741V18.6446H69.8495V15.2396H80.4956V18.6446H83.171V12.5849H80.9026ZM77.9578 2.76115V12.5849H71.831C72.262 11.6903 72.5539 10.2547 72.7462 8.07914L73.2288 2.756L77.9578 2.76115V2.76115Z" fill="#EF3124"/>
<path d="M124.355 9.6125L129.03 4.4542H125.548L121.717 8.74707V4.4542H118.946V15.2911H121.717V10.7286L125.818 15.2911H129.398L124.355 9.6125Z" fill="#EF3124"/>
<path d="M91.0165 4.47141L87.1581 11.0824V4.47141H84.397V15.2911H87.1306L90.989 8.63888V15.2911H93.7708V4.47141H91.0165Z" fill="#EF3124"/>
<path d="M101.683 3.96482C101.071 3.95132 100.466 4.1056 99.9343 4.41098C99.4028 4.71636 98.9649 5.16121 98.668 5.69744V4.4748H95.8863V19.6714H98.668V13.9482C99.0698 14.5544 99.9404 15.5263 101.683 15.5263C104.431 15.5263 106.093 13.2579 106.093 9.88376C106.093 6.5096 104.426 3.96482 101.683 3.96482V3.96482ZM103.229 9.74303C103.229 11.6421 102.415 13.0605 100.943 13.0605C99.4716 13.0605 98.6268 11.6421 98.6268 9.74303C98.6268 7.81126 99.451 6.44954 100.943 6.44954C102.435 6.44954 103.227 7.81126 103.227 9.74303H103.229Z" fill="#EF3124"/>
<path d="M112.591 15.5194C109.393 15.5194 107.245 13.1979 107.245 9.74303C107.245 6.2881 109.306 3.96482 112.383 3.96482C115.46 3.96482 117.481 6.22463 117.481 9.72067V10.3113H110.178C110.309 11.9512 111.224 12.9627 112.591 12.9627C112.981 12.9772 113.369 12.8899 113.715 12.7093C114.062 12.5286 114.355 12.2609 114.567 11.9324H117.381C117.218 13.2906 116.001 15.5194 112.591 15.5194ZM114.51 8.35731C114.363 7.51248 113.846 6.33106 112.383 6.33106C111.119 6.33106 110.436 7.16218 110.214 8.35731H114.51Z" fill="#EF3124"/>
<path d="M139 4.4542H129.628V6.97674H132.928V15.2911H135.7V6.97674H139V4.4542Z" fill="#EF3124"/>
<path d="M16.4724 10.3251C16.4072 12.3445 16.1462 12.7497 15.0112 12.7497V15.2911H15.4336C18.2668 15.2911 18.9486 13.8281 19.0516 10.5741L19.1683 6.96808H21.8231V15.2911H24.5945V4.4542H16.6665L16.4724 10.3251Z" fill="#EF3124"/>
<path d="M31.4836 7.74594H29.4814V4.4542H26.71V15.2911H31.518C34.5383 15.2911 35.6167 13.3267 35.6167 11.4791C35.6219 9.10076 34.1211 7.74594 31.4836 7.74594V7.74594ZM31.2723 12.8973H29.4814V10.15H31.2723C32.234 10.15 32.8178 10.5724 32.8178 11.4773C32.811 12.4612 32.2529 12.9042 31.2723 12.9042V12.8973V12.8973Z" fill="#EF3124"/>
<path d="M44.6454 4.20353V0.182047H41.8774V4.20353C38.7007 4.47316 36.5646 6.72596 36.5646 9.87006C36.5646 13.0142 38.7007 15.2773 41.8774 15.5469V19.6268H44.6454V15.54C47.8238 15.2911 49.9685 13.0193 49.9685 9.86316C49.9685 6.70711 47.8238 4.4542 44.6454 4.20353V4.20353ZM41.8774 12.9231C40.332 12.7119 39.3755 11.5494 39.3755 9.86316C39.3755 8.17701 40.3371 7.01444 41.8774 6.80323V12.9231V12.9231ZM44.6489 12.9231V6.80323C46.1943 7.01444 47.1507 8.17701 47.1507 9.86316C47.1507 11.5494 46.1908 12.7067 44.6454 12.9231H44.6489Z" fill="#EF3124"/>
<path d="M60.3537 11.9598V8.3229C60.3537 5.66653 58.6589 3.99233 55.8119 3.99233C52.867 3.99233 51.3078 5.76266 51.1757 7.61036H53.9866C54.0827 7.2068 54.5017 6.51311 55.8153 6.51311C56.892 6.51311 57.5856 7.01444 57.5856 8.3229H54.8383C52.3742 8.3229 50.9112 9.6125 50.9112 11.7675C50.9112 14.0203 52.5115 15.559 54.8193 15.559C56.5108 15.559 57.4501 14.7605 57.8604 14.1543C58.2262 14.8858 59.0332 15.2911 60.0927 15.2911H61.0543V12.7875C60.546 12.7875 60.3537 12.5573 60.3537 11.9598V11.9598ZM57.5822 11.2489C57.5822 12.499 56.6962 13.2116 55.5423 13.2116C54.5412 13.2116 53.7514 12.8458 53.7514 11.7675C53.7514 10.6891 54.6184 10.5363 55.3689 10.5363H57.5822V11.2489V11.2489Z" fill="#EF3124"/>
<path d="M10.1207 2.25631C9.69832 0.99597 9.21244 0 7.54339 0C5.87434 0 5.3557 0.990819 4.91103 2.25631L0.326294 15.2911H3.36562L4.42505 12.2002H10.2753L11.2575 15.2911H14.4909L10.1207 2.25631ZM5.31284 9.57469L7.3905 3.39302H7.46777L9.43045 9.57469H5.31284Z" fill="#EF3124"/>
<path d="M0 19.4774H14.8154V22.5682H0V19.4774Z" fill="#EF3124"/>
</svg>
