<svg width="142" height="24" viewBox="0 0 142 24" fill="none" xmlns="http://www.w3.org/2000/svg">
<g clip-path="url(#clip0)">
<path d="M37.9137 10.4189C38.4966 10.6319 39.0347 10.9516 39.5006 11.3617C39.9435 11.7913 40.3046 12.2978 40.5663 12.8566C40.8225 13.4518 40.9504 14.0943 40.9417 14.7423C40.9506 15.3833 40.8226 16.0187 40.5663 16.6063C40.3068 17.1658 39.9387 17.6682 39.4833 18.0841C39.0279 18.5001 38.4944 18.8213 37.9137 19.0291C37.2646 19.2691 36.5783 19.3897 35.8868 19.3863H28.5909V4.51029H39.6663V7.40229H31.64V10.0834H35.8857C36.576 10.0737 37.2628 10.1869 37.9137 10.4189ZM37.4097 13.3497C36.9589 13.0134 36.4059 12.8428 35.844 12.8669H31.64V16.5783H35.844C36.4057 16.6019 36.9584 16.4318 37.4097 16.0966C37.808 15.7829 37.9954 15.3497 37.9954 14.7349C37.9954 14.1206 37.808 13.6663 37.4097 13.3497V13.3497ZM46.5954 19.3863H43.6777V4.51029H46.5954V10.8171L51.7828 4.51029H55.4103L49.4943 11.6549L56.6468 19.3863H52.8377L46.5954 12.64V19.3869V19.3863ZM61.1251 19.0291C59.2842 18.2654 57.8201 16.8045 57.0526 14.9651C56.6566 14.009 56.4574 12.9829 56.4668 11.948C56.4564 10.9346 56.6467 9.92907 57.0268 8.98952C57.4068 8.04996 57.9691 7.19493 58.6811 6.47372C59.3813 5.77495 60.2116 5.22012 61.1251 4.84057C62.1126 4.43679 63.1716 4.23698 64.2383 4.25315C65.0607 4.25054 65.8783 4.37762 66.6611 4.62972C67.419 4.89439 68.1363 5.26367 68.792 5.72686C69.4167 6.20033 69.966 6.76581 70.4211 7.404C70.8839 8.06394 71.2237 8.80209 71.424 9.58286H68.1451C68.0028 9.21068 67.7904 8.86927 67.5194 8.57715C67.2442 8.27989 66.927 8.02461 66.5777 7.81943C66.2276 7.6236 65.856 7.46904 65.4703 7.35886C65.0685 7.25054 64.6544 7.19427 64.2383 7.19143C63.5803 7.18446 62.9273 7.30537 62.3154 7.54743C61.7489 7.78253 61.2371 8.13212 60.812 8.57429C60.3991 9.01164 60.073 9.52336 59.8508 10.0823C59.6216 10.6769 59.5098 11.3103 59.5217 11.9474C59.5113 12.5851 59.6246 13.2187 59.8554 13.8131C60.0773 14.3722 60.4035 14.8839 60.8166 15.3211C61.237 15.7637 61.7505 16.1072 62.32 16.3269C62.9272 16.586 63.5821 16.7145 64.2423 16.704C64.6586 16.7012 65.0728 16.645 65.4748 16.5366C65.8645 16.4282 66.2373 16.266 66.5823 16.0549C66.9346 15.8649 67.2524 15.6169 67.5223 15.3211C67.7932 15.0289 68.0058 14.6875 68.1485 14.3154H71.4268C71.2263 15.0898 70.8865 15.8211 70.424 16.4737C69.9744 17.1163 69.4243 17.6824 68.7948 18.1503C68.1485 18.627 67.4288 18.995 66.664 19.24C65.8846 19.5091 65.0651 19.6434 64.2411 19.6377C63.172 19.6474 62.112 19.4404 61.1251 19.0291ZM76.9565 4.51315L79.1085 7.43829L81.2697 4.51315H82.1977V10.692H81.1743V6.26343L79.1177 9.06457L77.0434 6.25429V10.692H76.0286V4.51315H76.9565ZM84.1874 10.692V4.51315H85.2114V8.95257L88.6731 4.51315H89.5583V10.692H88.5434V6.24572L85.0725 10.692H84.1874V10.692ZM93.5114 8.552H92.5663V10.692H91.5503V4.51315H93.5114C94.7783 4.51315 95.6468 5.392 95.6468 6.53257C95.6468 7.67315 94.7783 8.552 93.5114 8.552V8.552ZM93.4977 5.47143H92.5605V7.59372H93.4977C94.2268 7.59372 94.6423 7.13315 94.6423 6.53257C94.6423 5.93143 94.2325 5.47143 93.4977 5.47143V5.47143ZM76.0211 19.3886V13.2086H77.0446V17.6463L80.5063 13.2086H81.3914V19.3886H80.384V14.9406L76.9063 19.3886H76.0211V19.3886ZM83.3845 13.2091H84.408V15.768H87.4525V13.2091H88.4691V19.3886H87.4525V16.7343H84.408V19.3886H83.392L83.3845 13.2097V13.2091ZM90.4571 13.2091H92.5834C93.6845 13.2091 94.4223 13.9834 94.4223 14.9149C94.432 15.1457 94.385 15.3754 94.2853 15.5839C94.1856 15.7923 94.0362 15.9731 93.8503 16.1103C94.1493 16.2196 94.4061 16.4208 94.5837 16.685C94.7614 16.9493 94.8509 17.2629 94.8394 17.5811C94.8394 18.5989 94.0228 19.3914 92.852 19.3914H90.4571V13.2086V13.2091ZM92.5314 15.8114C93.0857 15.8114 93.4257 15.4543 93.4257 14.976C93.4257 14.5274 93.0857 14.1406 92.5314 14.1406H91.472V15.8114H92.5314ZM92.8291 18.4571C93.488 18.4571 93.8531 18.0909 93.8531 17.5691C93.8531 17.0474 93.488 16.6811 92.8291 16.6811H91.472V18.4571H92.8291V18.4571ZM96.452 13.2091H100.158V14.184H97.468V15.768H99.636V16.7429H97.468V18.4143H100.158V19.3886H96.452V13.2091ZM101.299 16.2989C101.299 14.4886 102.671 13.1046 104.511 13.1046C106.001 13.1046 107.174 14.0703 107.478 15.2806H106.384C106.125 14.5754 105.378 14.0851 104.511 14.0851C103.226 14.0851 102.323 15.0509 102.323 16.2954C102.323 17.5411 103.226 18.5063 104.511 18.5063C105.378 18.5063 106.125 18.0189 106.384 17.3103H107.478C107.18 18.52 105.988 19.4869 104.511 19.4869C102.671 19.4926 101.299 18.1086 101.299 16.2983V16.2989ZM110.235 14.184H108.446V13.2091H113.045V14.184H111.257V19.388H110.242L110.235 14.1834V14.184ZM114.488 19.3886V13.2086H115.511V17.6463L118.981 13.2086H119.866V19.3886H118.85V14.9406L115.373 19.3886H114.488ZM127.441 18.4137V20.6737H126.503V19.388H121.853V13.2091H122.876V18.4137H125.636V13.2091H126.66V18.4137H127.441V18.4137ZM128.979 19.3886V13.2086H130.009V17.6463L133.47 13.2086H134.355V19.3886H133.341V14.9406L129.859 19.3886H128.979V19.3886ZM136.342 19.3886V13.2086H137.366V17.6463L140.829 13.2086H141.714V19.3874H140.698V14.9394L137.227 19.3874H136.342V19.3886ZM137.67 11.372H138.337C138.337 11.8954 138.635 12.2166 139.111 12.2166C139.586 12.2166 139.882 11.8954 139.882 11.372H140.55C140.556 11.5655 140.523 11.7582 140.454 11.9388C140.384 12.1194 140.279 12.2844 140.145 12.424C139.943 12.6332 139.682 12.7763 139.397 12.8344C139.112 12.8926 138.815 12.863 138.547 12.7497C138.369 12.6741 138.208 12.5634 138.074 12.4242C137.94 12.285 137.835 12.1201 137.766 11.9394C137.696 11.7586 137.663 11.5657 137.67 11.372V11.372Z" fill="#006DF0"/>
<mask id="mask0" mask-type="alpha" maskUnits="userSpaceOnUse" x="0" y="0" width="23" height="24">
<path d="M11.3417 23.3234C17.6057 23.3234 22.684 18.2303 22.684 11.9474C22.684 5.66457 17.6057 0.571428 11.3417 0.571428C5.07771 0.571428 0 5.66457 0 11.9474C0 18.2303 5.07771 23.3234 11.3417 23.3234Z" fill="white"/>
</mask>
<g mask="url(#mask0)">
<path d="M21.484 17.6685C24.6223 12.0914 22.5663 4.96569 16.892 1.75426C11.2177 -1.45889 4.07372 0.458256 0.935434 6.0354C-2.20285 11.6125 -0.147423 18.7383 5.52743 21.9497C11.2017 25.1623 18.3457 23.2451 21.484 17.668V17.6685Z" fill="url(#paint0_linear)"/>
</g>
<mask id="mask1" mask-type="alpha" maskUnits="userSpaceOnUse" x="0" y="0" width="23" height="24">
<path d="M11.3417 23.3234C17.6057 23.3234 22.684 18.2303 22.684 11.9474C22.684 5.66457 17.6057 0.571428 11.3417 0.571428C5.07771 0.571428 0 5.66457 0 11.9474C0 18.2303 5.07771 23.3234 11.3417 23.3234Z" fill="white"/>
</mask>
<g mask="url(#mask1)">
<path d="M21.7514 16.524C24.7457 12.4006 23.2194 6.16858 18.3412 2.60515C13.4634 -0.958277 7.08172 -0.504562 4.08687 3.61887C1.09258 7.74229 2.61944 13.9737 7.49715 17.5377C12.3749 21.1012 18.7566 20.6474 21.7514 16.524Z" fill="url(#paint1_radial)"/>
</g>
<mask id="mask2" mask-type="alpha" maskUnits="userSpaceOnUse" x="0" y="0" width="23" height="24">
<path d="M11.3417 23.3234C17.6057 23.3234 22.684 18.2303 22.684 11.9474C22.684 5.66457 17.6057 0.571428 11.3417 0.571428C5.07771 0.571428 0 5.66457 0 11.9474C0 18.2303 5.07771 23.3234 11.3417 23.3234Z" fill="white"/>
</mask>
<g mask="url(#mask2)">
<path d="M21.8286 11.2131C23.3137 8.32399 20.9034 4.11256 16.4457 1.80628C11.9863 -0.499437 7.168 -0.0268653 5.68228 2.86285C4.19657 5.75199 6.60686 9.96342 11.0651 12.2697C15.5234 14.5754 20.3423 14.1028 21.8274 11.2137L21.8286 11.2131Z" fill="url(#paint2_radial)"/>
</g>
</g>
<defs>
<linearGradient id="paint0_linear" x1="17.5549" y1="37.9948" x2="10.844" y2="-3.69203" gradientUnits="userSpaceOnUse">
<stop stop-color="#006DEF"/>
<stop offset="0.11" stop-color="#0570EF"/>
<stop offset="0.23" stop-color="#1277F0"/>
<stop offset="0.37" stop-color="#2884F2"/>
<stop offset="0.5" stop-color="#4896F4"/>
<stop offset="0.64" stop-color="#70ADF6"/>
<stop offset="0.78" stop-color="#A1C9F9"/>
<stop offset="0.92" stop-color="#DBEAFD"/>
<stop offset="1" stop-color="white"/>
</linearGradient>
<radialGradient id="paint1_radial" cx="0" cy="0" r="1" gradientUnits="userSpaceOnUse" gradientTransform="translate(27.0577 15.5326) rotate(105.248) scale(17.4853 29.2354)">
<stop offset="0.03" stop-color="#006DEF"/>
<stop offset="0.1" stop-color="#0671EF"/>
<stop offset="0.21" stop-color="#187BF0"/>
<stop offset="0.33" stop-color="#358BF2"/>
<stop offset="0.46" stop-color="#5EA3F4"/>
<stop offset="0.61" stop-color="#92C1F8"/>
<stop offset="0.76" stop-color="#D1E4FB"/>
<stop offset="0.83" stop-color="#F0F6FD"/>
</radialGradient>
<radialGradient id="paint2_radial" cx="0" cy="0" r="1" gradientUnits="userSpaceOnUse" gradientTransform="translate(28.3086 4.63656) rotate(48.3775) scale(24.8726 20.9537)">
<stop offset="0.06" stop-color="#006DEF"/>
<stop offset="0.09" stop-color="#0F75F0"/>
<stop offset="0.25" stop-color="#529CF4"/>
<stop offset="0.4" stop-color="#8BBCF7"/>
<stop offset="0.54" stop-color="#B6D5FA"/>
<stop offset="0.67" stop-color="#D6E7FB"/>
<stop offset="0.77" stop-color="#E9F2FD"/>
<stop offset="0.84" stop-color="#F0F6FD"/>
</radialGradient>
<clipPath id="clip0">
<rect width="141.714" height="24" fill="white"/>
</clipPath>
</defs>
</svg>
