<svg width="112" height="30" viewBox="0 0 112 30" fill="none" xmlns="http://www.w3.org/2000/svg">
<path fill-rule="evenodd" clip-rule="evenodd" d="M10.16 8.8938V12.5044H23.36V19.7788H10.16V28.2743C11.2 28.7522 12.2667 29.0973 13.36 29.3363C19.7867 28.0089 25.8133 22.3009 26.0267 12.1858L26.08 8.86726C26.0533 8.8938 10.16 8.8938 10.16 8.8938Z" fill="#2D7D2F"/>
<path d="M26.1067 8.89381L26.2667 1.0354C22.0267 0.690266 17.7067 0.530973 13.3867 0.530973C9.06667 0.530973 4.80001 0.690265 0.53334 1.00885L0.640007 7.16814L0.746674 12.2124C0.746674 12.2124 0.800007 16.9115 2.37334 20.2301C4.98667 26.2832 10.2133 28.3274 10.2133 28.3274V19.8319H23.4133V12.5575H10.16V8.92035H26.1067V8.89381Z" fill="#72BF44"/>
<path d="M38.6667 6.1062V8.0177H42.5867V10.115H38.6667V13.6726H36.0533V4.00885H42.9333V6.1062H38.6667Z" fill="black"/>
<path d="M50.08 11.0708H48.08V13.6195H45.4667V4.00885H50.48C51.2533 4.00885 51.8933 4.11505 52.4 4.24779C52.88 4.40708 53.2267 4.69912 53.4667 5.1239C53.7067 5.57522 53.8133 6.15929 53.8133 6.92921C53.8133 7.61947 53.76 8.09735 53.7067 8.44248C53.6533 8.78761 53.52 9.07965 53.2267 9.31859C52.9867 9.55752 52.5333 9.76991 51.9467 9.90266V10.0089C52.48 10.0089 52.9333 10.1947 53.2267 10.4867C53.52 10.7788 53.68 11.177 53.68 11.708V13.6726H51.0667V12.292C51.12 11.5221 50.7733 11.0708 50.08 11.0708ZM48.08 8.84071H50.08C50.4267 8.84071 50.6667 8.78761 50.8267 8.68142C50.9867 8.57522 51.0667 8.44248 51.12 8.23009C51.1733 8.0177 51.1733 7.75221 51.1733 7.30089C51.1733 6.84956 51.12 6.55752 50.9867 6.42478C50.8267 6.26549 50.5333 6.18584 50.16 6.18584H48.16V8.81416H48.08V8.84071Z" fill="black"/>
<path d="M59.1734 6.1062V7.85841H63.28V9.66372H59.1734V11.5221H63.68V13.6726H56.56V4.00885H63.5733V6.1062H59.1734Z" fill="black"/>
<path d="M69.12 6.1062V7.85841H73.2533V9.66372H69.12V11.5221H73.6533V13.6726H66.5333V4.00885H73.5467V6.1062H69.12Z" fill="black"/>
<path d="M76.4267 13.6726V4.00885H81.3334C82.2667 4.00885 83.0134 4.16814 83.5467 4.40708C84.1334 4.64602 84.5334 5.04425 84.8267 5.57522C85.12 6.1062 85.2267 6.84956 85.2267 7.77876V9.76991C85.2267 10.6991 85.12 11.4425 84.88 11.9735C84.6934 12.5575 84.2934 12.9558 83.76 13.2478C83.2267 13.5398 82.5334 13.646 81.6534 13.646H76.4534V13.6726H76.4267ZM78.9867 6.23894V11.4159H81.2534C82.1334 11.4159 82.5867 10.885 82.5867 9.74336V7.75221C82.5867 7.35398 82.5334 7.00885 82.4267 6.82301C82.32 6.63717 82.1867 6.47788 82.0267 6.37168C81.84 6.26549 81.5734 6.26549 81.28 6.26549H78.9867V6.23894V6.23894Z" fill="black"/>
<path d="M92.1867 13.7257C91.44 13.7257 90.8533 13.6726 90.32 13.5664C89.7867 13.4602 89.3333 13.2743 88.9333 13.0354C88.5333 12.7965 88.24 12.3982 88.0533 11.9734C87.8667 11.4956 87.7067 10.9115 87.7067 10.2212V7.46018C87.7067 6.71681 87.8133 6.13274 88.0533 5.70796C88.24 5.23009 88.5867 4.88495 88.9333 4.64602C89.3333 4.40708 89.76 4.19469 90.32 4.11504C90.8533 4.00885 91.4933 3.95575 92.1867 3.95575C92.9333 3.95575 93.52 4.00885 94.0533 4.11504C94.5867 4.22124 95.04 4.40708 95.44 4.64602C95.84 4.88495 96.1333 5.28318 96.32 5.70796C96.5067 6.18584 96.6667 6.76991 96.6667 7.46018V10.1947C96.6667 10.9381 96.56 11.5221 96.32 11.9469C96.1333 12.4248 95.84 12.7699 95.44 13.0088C95.04 13.2478 94.6133 13.4602 94.0533 13.5398C93.5733 13.6726 92.9333 13.7257 92.1867 13.7257ZM92.1867 11.469C92.6667 11.469 93.0667 11.4159 93.3067 11.3628C93.5467 11.3097 93.76 11.177 93.84 10.9115C93.9467 10.6726 94 10.3274 94 9.8761V7.72566C94 7.38053 93.9467 7.08849 93.8933 6.90265C93.84 6.71681 93.7333 6.55752 93.6 6.42478C93.44 6.31858 93.3067 6.23894 93.0667 6.23894C92.8267 6.18584 92.5867 6.18584 92.1867 6.18584C91.7067 6.18584 91.36 6.23894 91.12 6.29203C90.88 6.34513 90.6667 6.47787 90.5867 6.74336C90.48 6.9292 90.4 7.32743 90.4 7.77876V9.9292C90.4 10.4071 90.5067 10.7522 90.5867 10.9646C90.6933 11.2035 90.88 11.3628 91.12 11.4159C91.36 11.469 91.7067 11.469 92.1867 11.469Z" fill="black"/>
<path d="M101.707 6.23894L101.947 13.6726H99.3867V4.00885H103.467L105.333 10.0619H105.387L107.147 4.00885H111.36V13.6726H108.773L109.013 6.23894H108.96L106.507 13.6726H104.267L101.813 6.23894H101.707Z" fill="black"/>
<path d="M39.3067 18.9558V19.7788H37.5467V25.6991H36.5067V19.7257H35.4667V18.9027H36.5067V17.8673C36.5067 17.1239 36.6667 16.5929 36.9867 16.3009C37.3333 16.0089 37.8667 15.8496 38.6667 15.8496L39.3067 15.9027V16.7257C39.12 16.6726 38.96 16.6726 38.7733 16.6726H38.5867C38.1867 16.6726 37.9467 16.7788 37.8133 16.9115C37.6533 17.0708 37.5733 17.3628 37.5733 17.7345V18.7965H39.3333V18.9558H39.3067Z" fill="black"/>
<path d="M42.0533 17.1504H41.0133V16.0354H42.0533V17.1504ZM42.0533 25.6991H41.0133V18.9558H42.0533V25.6991Z" fill="black"/>
<path d="M45.44 21.531V25.6726H44.4V18.9558H45.3867V19.8319C45.6267 19.4336 45.9734 19.1947 46.3734 19.0619C46.72 18.9558 47.1467 18.8761 47.7067 18.8761C48.64 18.8761 49.28 19.0354 49.6267 19.354C49.9734 19.6991 50.16 20.3363 50.16 21.2655V25.6991H49.12V21.3451C49.12 20.6549 49.0134 20.2301 48.8267 20.0177C48.64 19.8053 48.1867 19.6726 47.4934 19.6726C46.8 19.6726 46.32 19.8319 45.9734 20.1239C45.5734 20.4159 45.44 20.8407 45.44 21.531Z" fill="black"/>
<path d="M57.0667 22.354V21.3717C57.0667 20.5487 56.96 20.0442 56.72 19.8584C56.48 19.6726 55.9467 19.5664 55.0933 19.5664C54.4533 19.5664 54.0533 19.6195 53.8133 19.7522C53.5733 19.9115 53.4667 20.1504 53.4667 20.5752V20.7611H52.4267C52.4267 19.9381 52.6667 19.354 53.2 19.0885C53.5467 18.9027 54.1867 18.7965 55.12 18.7965C56.16 18.7965 56.88 18.9558 57.3333 19.1947C57.8667 19.5398 58.1067 20.177 58.1067 21.1858V25.6726H57.12L57.1733 24.8496C56.9333 25.3009 56.6933 25.5398 56.4 25.6195C56.1067 25.7257 55.6267 25.8053 54.88 25.8053C53.9467 25.8053 53.3067 25.646 52.9067 25.4071C52.4267 25.115 52.2133 24.4779 52.2133 23.6549C52.2133 22.8319 52.4533 22.2743 52.9067 21.9823C53.3067 21.7434 53.9467 21.5841 54.7733 21.5841C55.5467 21.5841 56.1067 21.6372 56.4 21.7434C56.72 21.9292 56.9067 22.0619 57.0667 22.354ZM57.0667 23.7345C57.0667 23.1504 56.9067 22.8053 56.6133 22.6195C56.32 22.4602 55.7333 22.3805 54.8 22.3805C54.2667 22.3805 53.8667 22.4336 53.6267 22.5664C53.3867 22.7522 53.2267 23.0442 53.2267 23.4956C53.2267 24.0796 53.3333 24.4248 53.5733 24.6637C53.8133 24.8496 54.2133 24.9558 54.8 24.9558C55.5733 24.9558 56.1333 24.9027 56.4267 24.7965C56.8533 24.6637 57.0667 24.3186 57.0667 23.7345Z" fill="black"/>
<path d="M61.4134 21.531V25.6726H60.3734V18.9558H61.36V19.8319C61.6 19.4336 61.9467 19.1947 62.3467 19.0619C62.6934 18.9558 63.12 18.8761 63.68 18.8761C64.6134 18.8761 65.2534 19.0354 65.6 19.354C65.9467 19.6991 66.1334 20.3363 66.1334 21.2655V25.6991H65.0934V21.3451C65.0934 20.6549 64.9867 20.2301 64.8 20.0177C64.6134 19.8319 64.16 19.6726 63.4667 19.6726C62.7734 19.6726 62.2934 19.8319 61.9467 20.1239C61.6267 20.4159 61.4134 20.8407 61.4134 21.531Z" fill="black"/>
<path d="M73.1467 23.2566H74.1333C74.1333 24.292 73.8933 24.9558 73.44 25.3009C73.04 25.646 72.2667 25.7788 71.1733 25.7788C70.0533 25.7788 69.2533 25.5398 68.88 25.0354C68.48 24.5575 68.2933 23.6283 68.2933 22.3009C68.2933 20.9735 68.48 20.0442 68.88 19.5664C69.28 19.0885 70.0533 18.823 71.1467 18.823C72.08 18.823 72.7733 18.9823 73.2 19.2212C73.7333 19.5664 73.9733 20.0973 73.9733 20.8938V21.0796H72.9867C72.9867 20.4956 72.88 20.1504 72.64 19.9646C72.4 19.7257 71.8933 19.6195 71.12 19.6195C70.3733 19.6195 69.84 19.7788 69.6533 20.0973C69.4133 20.4425 69.3067 21.1327 69.3067 22.2478C69.3067 23.3097 69.4667 24.0531 69.7067 24.3982C69.9467 24.7434 70.4533 24.9292 71.2267 24.9292C72 24.9292 72.56 24.823 72.8 24.5841C73.0133 24.4248 73.1467 23.9204 73.1467 23.2566Z" fill="black"/>
<path d="M81.9733 22.5133H77.12C77.12 23.5487 77.2267 24.2124 77.4667 24.5044C77.7067 24.8496 78.24 24.9823 79.04 24.9823C79.8133 24.9823 80.3733 24.8761 80.6133 24.7434C80.8533 24.5841 80.96 24.292 80.96 23.8142V23.6283H82C82 24.5044 81.76 25.1416 81.2533 25.4336C80.8533 25.6726 80.1333 25.8319 79.04 25.8319C77.92 25.8319 77.12 25.5929 76.6933 25.0885C76.2667 24.5841 76.0533 23.6814 76.0533 22.3009C76.0533 20.9735 76.2933 20.0973 76.7467 19.5664C77.2 19.0885 77.9733 18.7965 79.0133 18.7965C80.0533 18.7965 80.8267 19.0354 81.28 19.4867C81.7333 19.9646 81.9733 20.7611 81.9733 21.9292V22.5133ZM80.96 21.7434C80.96 20.9735 80.8 20.4159 80.56 20.1239C80.2667 19.8319 79.7867 19.6726 79.04 19.6726C78.2933 19.6726 77.8133 19.8319 77.52 20.1239C77.2267 20.4159 77.12 20.9469 77.12 21.7434H80.96Z" fill="black"/>
</svg>
