<svg width="132" height="30" viewBox="0 0 132 30" fill="none" xmlns="http://www.w3.org/2000/svg">
<path d="M123.28 8.61409H126.046L126.029 13.0425H126.629L128.207 8.61409H131.199L129.052 14.4655L131.508 20.9414H128.272L126.679 15.9845H126.029L126.046 20.9414H123.28V8.61409ZM113.967 8.61409H116.714V13.0602H118.681V8.61477H121.428V20.9414H118.681V16.0009H116.714V20.9414H113.966L113.967 8.61409ZM104.39 20.9577H107.251L107.594 18.8264H109.559L109.902 20.9577H112.762L110.356 8.6325H106.811L104.39 20.9577ZM108.584 12.3648L109.104 16.1161H108.047L108.583 12.3648H108.584ZM96.7147 20.9414H100.064C100.795 20.9414 103.836 20.6264 103.852 16.8914C103.852 13.7564 101.496 13.2095 99.9673 13.2095H99.4627V11.5732H103.186V8.61477H96.7147V20.942V20.9414ZM99.4627 18.4623V15.6709H99.869C100.21 15.6709 101.089 15.6866 101.089 16.9595C101.089 18.2495 100.21 18.4623 99.869 18.4623H99.4634H99.4627ZM85.8062 8.61409H88.1966L90.3073 11.5227L92.4399 8.61409H94.8131V20.9414H91.9985V13.423L90.3073 15.5707L88.6181 13.423V20.9414H85.8062V8.61409ZM80.0009 21.0907C83.3339 21.0907 84.4546 17.9168 84.4546 14.762C84.4546 11.6073 83.3339 8.43341 80.0009 8.43341C76.6679 8.43341 75.5473 11.6073 75.5473 14.762C75.5473 17.9168 76.6679 21.0907 80.0009 21.0907ZM80.0009 18.0989C79.0075 18.0989 78.5056 16.9275 78.5056 14.762C78.5056 12.5966 79.0075 11.4239 80.0009 11.4239C80.9944 11.4239 81.4956 12.5966 81.4956 14.762C81.4956 16.9275 80.9937 18.0989 80.0009 18.0989ZM67.3998 20.9414H70.213V16.8777H71.1569C73.9358 16.8777 74.7986 14.3318 74.7986 12.7105C74.7986 11.1252 73.8052 8.61409 71.1569 8.61409H67.3998V20.9414V20.9414ZM70.213 11.3243H70.8799C71.5138 11.3243 71.9208 11.7211 71.9208 12.7452C71.9208 14.068 71.2367 14.1648 70.8799 14.1648H70.213V11.325V11.3243ZM58.1164 8.61409H65.7903V20.9414H62.9771V11.5889H60.929V20.9414H58.1164V8.61409ZM52.3442 13.3909C52.7986 13.3909 53.6291 13.093 53.6291 12.1841C53.6291 11.1116 52.6701 11.0434 52.3923 11.0434C52.0678 11.0434 51.4504 11.0945 50.8482 11.3918L50.8166 8.71296C51.7749 8.46614 52.4583 8.39932 53.2703 8.39932C55.5803 8.39932 56.6046 10.0364 56.6046 11.638C56.6046 13.1925 55.726 14.132 54.8653 14.4961V14.612C55.6944 14.8786 56.7992 15.6859 56.7992 17.5705C56.7992 19.9016 55.2069 21.1889 53.1575 21.1889C52.0678 21.1739 51.3521 21.0252 50.49 20.5459L50.5402 17.983C51.3363 18.3314 51.8726 18.3634 52.4102 18.3634C53.3204 18.3634 53.6773 17.685 53.6773 17.1914C53.6773 16.4959 53.2386 16.0343 52.2796 16.0343H51.1411V13.3909H52.3442V13.3909ZM41.2899 20.9414H44.1341L44.4923 18.8086H46.4599L46.8009 20.9414H49.6451L47.2388 8.61409H43.6948L41.2899 20.9414V20.9414ZM45.4671 12.3327L46.0034 16.1005H44.9302L45.4664 12.3327H45.4671ZM35.8435 8.61409H41.613V11.687H38.7035V20.9414H35.8435V8.61409Z" fill="#183568"/>
<path d="M0.713625 14.9175C0.713625 22.5027 6.798 28.6773 14.2766 28.6773C21.7408 28.6773 27.8211 22.5 27.8211 14.9175C27.8211 7.32 21.7436 1.14136 14.2766 1.14136C6.79456 1.14136 0.713625 7.31795 0.713625 14.9175V14.9175ZM0 14.9175C0 6.91704 6.40131 0.415909 14.2766 0.415909C22.1348 0.415909 28.5347 6.91636 28.5347 14.9168C28.5347 22.9009 22.1341 29.4014 14.2759 29.4014C6.402 29.402 0 22.9009 0 14.9182V14.9175Z" fill="#183568"/>
<path d="M10.0196 5.76136C9.5261 5.98092 9.05717 6.25127 8.62057 6.56796C12.0175 5.03114 16.1652 5.13136 18.3906 6.13977C19.0905 6.46977 19.5608 6.67023 19.7739 7.06432C17.4639 6.43568 16.4718 6.32182 14.5386 6.37023C11.7886 6.42068 8.13107 7.52591 6.73269 8.37068L6.11807 9.14795C8.13107 7.93841 11.8876 7.14818 13.97 7.08136C16.2951 7.04932 18.0984 7.26409 19.7581 7.875C19.6591 8.30386 19.448 8.51864 19.0905 8.73477C12.4568 7.56068 8.53738 8.9475 4.994 11.2936L4.73482 12.0695C8.68588 9.31227 13.5293 8.55341 18.1968 9.37841C16.5227 9.97364 14.5228 10.1052 12.848 10.4993C11.418 10.8307 10.6535 10.9309 8.74913 11.5766C6.81725 12.2209 5.676 12.8809 4.96238 13.7243C4.62069 14.1225 4.36013 14.5834 4.29413 15.0777C4.26388 15.3736 4.27969 15.6409 4.378 15.9055C4.45638 16.1373 4.63582 16.3677 4.83175 16.5989C4.60488 16.9943 4.40757 17.5091 4.73482 18.1036C4.88057 18.3832 5.25457 18.6641 5.61413 18.9307L5.51307 19.2252C5.46494 19.5743 5.41682 19.9861 5.64507 20.3325C6.0335 20.9605 6.50513 21.375 7.25382 21.7711C7.36794 22.2839 7.54532 22.6957 7.93582 23.0611C8.76494 23.8364 10.6198 25.3234 13.9191 25.5552C16.3914 25.7216 18.1631 24.9607 18.8306 24.6293L19.6433 24.2011C18.2614 24.7616 15.9376 25.0923 14.0333 24.9273C11.2695 24.6955 8.8 22.862 8.49063 22.333C8.58688 22.3977 8.7175 22.4482 8.82957 22.498C12.0663 24.0839 16.2443 24.9443 21.5937 22.7298L22.0351 22.3002C17.171 23.8364 12.9133 23.7873 8.34282 21.3593C8.393 21.1275 8.49063 20.9264 8.70032 20.7648C9.86975 21.2898 10.9931 21.7227 12.3592 22.0016C13.9528 22.3002 15.7726 22.367 17.27 22.3002C18.7825 22.2341 21.7731 21.4739 23.188 20.7143C23.3173 20.5984 23.3819 20.402 23.5118 20.2684C20.7501 21.2898 17.4639 21.7711 15.4818 21.6211C13.5465 21.4739 11.8243 21.2414 9.54732 20.1845C9.98525 20.0039 10.4411 19.8545 10.8955 19.7209C12.3915 20.1845 13.9191 20.4641 15.7238 20.548C17.5141 20.6298 21.6913 19.9548 24.3244 18.3361C24.4076 18.1043 24.4881 17.8548 24.4881 17.8548C24.4881 17.8548 20.8299 19.8389 16.6849 19.8389C14.7496 19.8389 13.563 19.5573 12.6858 19.3425C14.6355 18.9791 17.0913 18.6811 19.8536 17.9714C21.2513 17.6066 22.9756 16.7795 23.7566 16.0868C24.4228 15.4739 24.9439 14.6809 24.7658 13.8743C24.7308 13.6568 24.4393 13.1475 24.0811 12.9641C24.4228 12.5182 24.3904 12.1377 24.343 11.8098C24.3086 11.5575 24.1952 11.2793 24.0508 11.0325C23.8226 10.7318 23.6094 10.4993 23.1701 10.2368C23.2375 9.89021 23.192 9.53131 23.0402 9.21205C22.6992 8.6175 22.0825 8.10614 21.0258 7.56068C20.977 7.34523 20.845 7.06432 20.6195 6.78409C19.2871 5.44568 17.1071 4.80136 15.2694 4.76727C15.1663 4.76523 15.0638 4.76455 14.9634 4.76455C12.8136 4.76455 11.088 5.25545 10.0196 5.76136V5.76136ZM20.4243 9.06545C20.5879 8.88341 20.8299 8.6025 20.8938 8.37068C21.351 8.66864 21.8708 9.11455 21.9347 9.5775C21.4486 9.39341 20.9282 9.19841 20.4243 9.06614V9.06545ZM20.8299 11.0802C20.0509 10.8641 19.3683 10.5995 18.4553 10.4366C19.0101 10.2198 19.382 9.99 19.7093 9.72477C20.438 9.92182 21.1214 10.1714 21.6776 10.4182C21.5813 10.562 21.0244 11.0857 20.8553 11.0857C20.8465 11.0861 20.8377 11.0842 20.8299 11.0802V11.0802ZM22.2448 11.6584C22.4551 11.4927 22.6511 11.3127 22.8305 11.0966C23.2684 11.4764 23.3984 11.7409 23.188 12.1541C22.8965 11.94 22.5851 11.8234 22.2448 11.6584V11.6584ZM5.54882 15.7568C4.34363 14.0714 8.52157 12.8659 9.31975 12.617C11.3513 12.0034 13.7266 11.5439 15.873 11.2793C17.3491 11.0966 18.1321 11.2636 19.5312 11.6427C15.9376 12.6177 12.3915 12.9293 9.00969 13.9384C6.28307 14.743 5.55982 15.7568 5.54882 15.7568V15.7568ZM6.4405 16.5655C7.70894 15.4739 10.2953 14.8636 11.2393 14.6489C14.2457 13.9875 17.0424 13.575 18.1968 13.2784C19.5958 12.9293 20.5714 12.6007 21.2513 12.2707C21.2843 12.2209 22.3898 12.765 22.5039 12.8959C22.1306 13.2116 21.6123 13.4768 21.0416 13.6732C19.3346 14.3018 16.2291 14.9618 14.5881 15.2141C12.9291 15.493 11.5445 15.7064 9.71025 16.2C8.6515 16.483 7.93582 16.8136 7.41538 17.1614C7.02557 16.9295 6.798 16.8641 6.4405 16.5655V16.5655ZM8.8 17.8875C9.33488 17.6557 9.92063 17.4736 10.4878 17.3277C13.3506 16.6132 15.873 16.483 19.3518 15.5257C21.0258 15.0777 22.2448 14.5977 23.0099 14.0052C23.1227 13.9043 23.2368 13.8225 23.3509 13.7243C24.3588 15.3095 20.5714 16.5327 17.9843 17.0973C16.6319 17.3689 15.2768 17.6271 13.9191 17.8718C12.2306 18.1527 11.6751 18.302 10.505 18.6491C9.92063 18.4173 9.33488 18.1691 8.8 17.8875V17.8875ZM5.75713 17.3918C6.01838 17.5589 6.21225 17.6918 6.52232 17.8548C6.40819 17.9536 6.26107 18.0539 6.14832 18.1684C5.88982 18.0184 5.62719 17.6911 5.75713 17.3911V17.3918ZM7.10807 18.9123C7.271 18.7636 7.48138 18.6157 7.70894 18.4677C8.19707 18.6995 8.70032 18.9116 9.17194 19.1277C8.85441 19.2455 8.54987 19.3951 8.26307 19.5743C7.87473 19.3592 7.48969 19.1382 7.10807 18.9116V18.9123ZM6.68457 19.7209C6.96094 19.9036 7.23732 20.0516 7.51507 20.2016C7.40094 20.3673 7.31844 20.4975 7.271 20.6645C6.864 20.3168 6.66738 20.0359 6.68457 19.7209V19.7209Z" fill="#183568"/>
</svg>
