<svg width="96" height="28" viewBox="0 0 96 28" fill="none" xmlns="http://www.w3.org/2000/svg">
<path d="M39.7037 20.2553H36.7408V7.74468H39.7037V20.2553Z" fill="#F1A4A0"/>
<path d="M45.6296 23.234H42.6667V11.3191H45.6296V23.234Z" fill="#F1A4A0"/>
<path d="M51.5556 13.7021H48.5926V7.14894H51.5556V13.7021Z" fill="#F1A4A0"/>
<path d="M10.0741 13.7021H7.11111V4.76596H10.0741V13.7021Z" fill="#F1A4A0"/>
<path d="M16 20.2553H13.037V8.34043H16V20.2553Z" fill="#F1A4A0"/>
<path d="M4.14814 20.2553H1.18518V13.7021H4.14814V20.2553Z" fill="#F1A4A0"/>
<path fill-rule="evenodd" clip-rule="evenodd" d="M18.963 7.74468H21.9259V1.19149H18.963V7.74468Z" fill="#E1372F"/>
<path fill-rule="evenodd" clip-rule="evenodd" d="M18.963 26.2128H21.9259V10.7234H18.963V26.2128Z" fill="#E1372F"/>
<path fill-rule="evenodd" clip-rule="evenodd" d="M24.8889 26.2128H27.8518V1.19149H24.8889V26.2128Z" fill="#E1372F"/>
<path fill-rule="evenodd" clip-rule="evenodd" d="M30.8148 7.74468H33.7778V1.19149H30.8148V7.74468Z" fill="#E1372F"/>
<path fill-rule="evenodd" clip-rule="evenodd" d="M30.8148 26.2128H33.7778V10.7234H30.8148V26.2128Z" fill="#E1372F"/>
<path d="M60.5956 10.1818V16.6809H59.2285V10.1818H60.5956Z" fill="#E1372F"/>
<path d="M61.5627 11.3147V10.1818H66.8717V11.3147H64.893V16.6809H63.5419V11.3147H61.5627Z" fill="#E1372F"/>
<path d="M69.2018 10.1818V16.6809H67.8353V10.1818H69.2018Z" fill="#E1372F"/>
<path d="M64.6512 21.7447C64.4112 20.4119 63.3511 19.6249 62.0504 19.6249C60.3964 19.6249 59.197 20.9069 59.197 22.9633C59.197 25.0196 60.3964 26.3016 62.0504 26.3016C63.3511 26.3016 64.4112 25.5146 64.6512 24.1818H63.8684C63.6794 25.083 62.909 25.5654 62.0504 25.5654C60.8764 25.5654 59.9544 24.6515 59.9544 22.9633C59.9544 21.275 60.8764 20.3611 62.0504 20.3611C62.909 20.3611 63.6794 20.8434 63.8684 21.7447H64.6512Z" fill="#E1372F"/>
<path d="M66.2702 26.2128L66.9209 24.3722H69.5342L70.1849 26.2128H71.0051L68.6317 19.7138H67.8234L65.4495 26.2128H66.2702ZM67.1668 23.6741L68.2021 20.7419H68.2531L69.2883 23.6741H67.1668Z" fill="#E1372F"/>
<path d="M72.1013 26.2128H72.8841V23.8391H74.2981C75.8038 23.8391 76.4823 22.9189 76.4823 21.7701C76.4823 20.6214 75.8038 19.7138 74.2856 19.7138H72.1013V26.2128ZM72.8841 23.141V20.4119H74.2601C75.3114 20.4119 75.712 20.9895 75.712 21.7701C75.712 22.5507 75.3114 23.141 74.2726 23.141H72.8841Z" fill="#E1372F"/>
<path d="M78.6151 19.7138H77.8323V26.2128H78.6151V19.7138Z" fill="#E1372F"/>
<path d="M79.92 20.4119H81.9532V26.2128H82.736V20.4119H84.7686V19.7138H79.92V20.4119Z" fill="#E1372F"/>
<path d="M85.1307 26.2128L85.7813 24.3722H88.3947L89.0453 26.2128H89.8655L87.4922 19.7138H86.6839L84.3099 26.2128H85.1307ZM86.0273 23.6741L87.0625 20.7419H87.1135L88.1488 23.6741H86.0273Z" fill="#E1372F"/>
<path d="M90.8284 26.2128H94.6163V25.5146H91.6112V19.7138H90.8284V26.2128Z" fill="#E1372F"/>
</svg>
