<svg width="152" height="30" viewBox="0 0 152 30" fill="none" xmlns="http://www.w3.org/2000/svg">
<path d="M14.6699 0.12497C11.7676 0.125794 8.93081 0.992404 6.51811 2.61522C4.10545 4.23804 2.2253 6.54412 1.11541 9.24196C0.00553034 11.9397 -0.284231 14.9081 0.282772 17.7716C0.849775 20.635 2.24808 23.2651 4.30085 25.3291C6.35364 27.3931 8.96866 28.7983 11.8153 29.3671C14.662 29.9359 17.6123 29.6427 20.2933 28.5247C22.9744 27.4065 25.2656 25.5137 26.8773 23.0856C28.489 20.6575 29.3488 17.803 29.348 14.8833C29.3475 12.9447 28.9674 11.0251 28.2294 9.23425C27.4915 7.44342 26.4101 5.81629 25.0472 4.44587C23.6842 3.07542 22.0662 1.98848 20.2857 1.2471C18.5052 0.505725 16.5969 0.124423 14.6699 0.12497ZM12.599 21.1666L11.5098 24.3916C9.52497 23.7091 7.80199 22.4193 6.58201 20.7028C5.36204 18.9862 4.70616 16.9289 4.70616 14.8187C4.70616 12.7085 5.36204 10.6512 6.58201 8.93462C7.80199 7.21808 9.52497 5.92829 11.5098 5.24579L12.5866 8.47496C11.2738 8.93037 10.135 9.7865 9.32882 10.924C8.52264 12.0615 8.08938 13.4238 8.08938 14.8208C8.08938 16.2178 8.52264 17.58 9.32882 18.7176C10.135 19.8551 11.2738 20.7112 12.5866 21.1666H12.599ZM17.6353 24.4583L16.6206 21.2083C17.9588 20.7761 19.1271 19.9296 19.9586 18.7896C20.79 17.6496 21.2422 16.2744 21.2504 14.8605C21.2587 13.4465 20.8227 12.0661 20.0046 10.9164C19.1865 9.76662 18.0282 8.90629 16.6951 8.45829L17.7471 5.22079C19.7595 5.89508 21.5084 7.19225 22.7438 8.92679C23.9792 10.6613 24.6377 12.7445 24.6253 14.8783C24.6129 17.0121 23.9302 19.0873 22.6747 20.8072C21.4193 22.5271 19.6554 23.8036 17.6353 24.4541" fill="#00BEF0"/>
<path d="M149.134 17.525L150.758 19.4875C150.05 20.2174 149.2 20.7928 148.262 21.1778C147.323 21.5627 146.316 21.749 145.303 21.725C144.003 21.7795 142.709 21.5195 141.53 20.9666C139.364 19.8875 138.274 17.6916 138.274 15.0291C138.274 10.9791 140.996 8.02913 145.001 8.02913C149.436 8.02913 151.602 11.3625 151.317 15.7291H141.157C141.184 16.2664 141.339 16.7892 141.611 17.2528C141.882 17.7165 142.26 18.1072 142.714 18.3916C143.556 18.8812 144.518 19.1183 145.489 19.075C146.173 19.076 146.849 18.936 147.477 18.6637C148.104 18.3914 148.67 17.9925 149.138 17.4916L149.134 17.525ZM141.19 13.3916H148.364C148.186 11.8083 146.897 10.475 144.822 10.475C143.971 10.444 143.136 10.7212 142.469 11.2563C141.803 11.7913 141.349 12.5489 141.19 13.3916ZM72.9973 21.3916H76.6627L70.9057 14.6791L76.5757 8.36246H72.9641L68.6319 13.4208H67.3604V8.36246H64.5524V21.3916H67.3604V16.2125H68.6485L72.9973 21.3916ZM84.9295 10.7C82.5853 10.7 81.028 12.5375 81.028 14.8666C81.028 17.1958 82.5853 19.0333 84.9295 19.0333C87.2737 19.0333 88.8103 17.2333 88.8103 14.8666C88.8103 12.5 87.3607 10.7 84.9295 10.7ZM85.4141 8.03746C89.0629 8.03746 91.7467 10.9166 91.7467 14.875C91.7467 18.8333 89.0795 21.725 85.4141 21.725C84.635 21.7591 83.858 21.6242 83.1357 21.3294C82.413 21.0346 81.7619 20.5869 81.2268 20.0166V26.8125H78.398V8.36246H81.1523V9.92913C81.6671 9.30313 82.3202 8.80654 83.0591 8.47892C83.7984 8.15125 84.6031 8.0015 85.4099 8.04163L85.4141 8.03746ZM122.271 8.36663H110.674V10.975H115.056V21.3916H117.885V10.975H122.267L122.271 8.36663ZM62.5934 8.36663H50.9966V10.975H55.3785V21.3916H58.2032V10.975H62.5851L62.5934 8.36663ZM47.5797 14.8791C47.5797 12.45 45.8609 10.65 43.5374 10.65C41.214 10.65 39.4952 12.3958 39.4952 14.8791C39.4952 17.3625 41.1767 19.125 43.5374 19.125C45.8982 19.125 47.5797 17.3416 47.5797 14.8791ZM36.596 14.8791C36.596 10.975 39.6028 8.04163 43.5374 8.04163C47.472 8.04163 50.4789 10.9583 50.4789 14.8791C50.4789 18.8 47.472 21.725 43.5333 21.725C39.5946 21.725 36.5918 18.7833 36.5918 14.8791H36.596ZM135.992 8.36246V21.3916H133.217V12.975L126.433 21.3916H124.218V8.36246H126.992V16.75L133.777 8.36246H135.992ZM108.757 21.3916H105.949V8.36246H108.757V21.3916ZM101.567 16.95C101.581 16.6908 101.542 16.4315 101.452 16.1885C101.361 15.9453 101.222 15.7238 101.042 15.5378C100.862 15.3517 100.646 15.2053 100.407 15.1077C100.168 15.0101 99.9112 14.9635 99.6532 14.9708H96.8079V18.9833H99.6532C99.9141 18.9843 100.172 18.9316 100.412 18.8283C100.652 18.7251 100.868 18.5735 101.047 18.383C101.226 18.1925 101.365 17.9671 101.454 17.7206C101.544 17.4741 101.582 17.2119 101.567 16.95ZM104.358 16.95C104.358 19.5583 102.482 21.3958 99.7443 21.3958H94.0164V8.36246H96.8079V12.5583H99.9721C102.677 12.5583 104.371 14.3208 104.371 16.95" fill="#00BEF0"/>
</svg>
