<svg width="98" height="30" viewBox="0 0 98 30" fill="none" xmlns="http://www.w3.org/2000/svg">
<g clip-path="url(#clip0)">
<path fill-rule="evenodd" clip-rule="evenodd" d="M19.9492 0L9.97461 10.0003H19.9492V30L29.9238 20.0241V0H19.9492Z" fill="#F26126"/>
<path fill-rule="evenodd" clip-rule="evenodd" d="M9.9746 30L19.9492 20H9.9746V0L0 9.97618V30H9.9746Z" fill="#2D2F66"/>
<path fill-rule="evenodd" clip-rule="evenodd" d="M71.1679 20.7374C67.6728 20.7374 65.708 18.1684 65.708 14.9931C65.708 12.4436 67.1385 9.24336 71.069 9.24336C73.522 9.24336 75.1048 10.7468 75.6657 11.4469L78.8502 8.25501C76.9289 5.95584 74.0452 4.49316 70.8196 4.49316C65.0352 4.49316 60.4712 8.78526 60.4712 14.9931C60.4712 20.7919 65.0352 25.493 70.8196 25.493C74.2826 25.493 77.3517 23.8071 79.2583 21.2103L76.0539 17.9971C75.04 19.5896 73.3853 20.7374 71.1679 20.7374ZM90.2669 20.7497H86.2919V16.7541H90.2669C91.5024 16.7541 92.7527 17.2421 92.7527 18.7463C92.7527 20.2512 91.5024 20.7497 90.2669 20.7497ZM90.7656 12.4934H86.2919V9.49982H96.255V4.9996H81.0551V24.9996C81.0551 24.9996 88.5251 24.9992 91.0149 24.9992C95.0079 24.9992 98.0004 22.9926 98.0004 18.7463C98.0004 14.4928 95.0079 12.4934 90.7656 12.4934ZM39.8984 24.9996H45.1353V9.49982H53.1148V24.9996H58.3516V4.9996H39.8984V24.9996Z" fill="#2D2F66"/>
</g>
<defs>
<clipPath id="clip0">
<rect width="98" height="30" fill="white"/>
</clipPath>
</defs>
</svg>
