<svg width="146" height="24" viewBox="0 0 146 24" fill="none" xmlns="http://www.w3.org/2000/svg">
<g clip-path="url(#clip0)">
<path d="M65.018 6.86421L68.0492 4.62732H57.9011V18.0268H68.0492V15.7899H60.8006V12.3687H66.9948V10.1318H60.8006V6.86421H65.018Z" fill="#21A038"/>
<path d="M50.2352 9.84674H46.7207V6.86421H52.3439L55.3751 4.62732H43.8212V18.0268H49.8618C53.2444 18.0268 55.1994 16.4916 55.1994 13.8161C55.1994 11.2503 53.4421 9.84674 50.2352 9.84674ZM49.7519 15.7899H46.7207V12.0836H49.7519C51.597 12.0836 52.4537 12.6977 52.4537 13.9477C52.4537 15.1977 51.5311 15.7899 49.7519 15.7899Z" fill="#21A038"/>
<path d="M76.2643 4.62732H70.751V18.0268H73.6504V14.2328H76.2863C79.8008 14.2328 81.9973 12.3907 81.9973 9.43006C81.9973 6.46947 79.8008 4.62732 76.2643 4.62732ZM76.1984 11.9959H73.6285V6.86421H76.1984C78.0655 6.86421 79.0759 7.78529 79.0759 9.43006C79.0759 11.0748 78.0655 11.9959 76.1984 11.9959Z" fill="#21A038"/>
<path d="M38.857 15.1319C38.0882 15.5486 37.2316 15.7679 36.3529 15.7679C33.739 15.7679 31.85 13.9039 31.85 11.338C31.85 8.77215 33.739 6.90808 36.3529 6.90808C37.2975 6.88615 38.22 7.19317 38.9888 7.74143L41.0755 6.20631L40.9437 6.07472C39.7356 5.00014 38.1102 4.45188 36.2651 4.45188C34.2662 4.45188 32.4431 5.13172 31.1251 6.35982C29.8072 7.63178 29.0604 9.40813 29.1043 11.2503C29.0823 13.1144 29.8072 14.9126 31.1251 16.2285C32.509 17.5224 34.3541 18.2461 36.2431 18.2022C38.3298 18.2022 40.153 17.4785 41.383 16.1627L39.516 14.7811L38.857 15.1319Z" fill="#21A038"/>
<path d="M116.857 4.64925V18.0487H119.756V12.5661H125.928V18.0487H128.828V4.64925H125.928V10.1538H119.756V4.64925H116.857ZM111.87 18.0487H114.924L109.257 4.64925H106.313L100.536 18.0487H103.458L104.622 15.3513H110.772L111.87 18.0487ZM105.5 13.1144L107.741 7.74143L109.85 13.1144H105.5ZM135.33 12.6319H137.131L141.568 18.0268H145.302L139.371 11.0968L144.555 4.62732H141.238L136.933 10.3731H135.33V4.62732H132.43V18.0268H135.33V12.6319ZM90.9592 9.86867V6.88614H98.5373V4.64925H88.0598V18.0487H94.1003C97.483 18.0487 99.4379 16.5136 99.4379 13.8381C99.4379 11.2722 97.6807 9.86867 94.4737 9.86867H90.9592ZM90.9592 15.8118V12.1056H93.9905C95.8356 12.1056 96.6922 12.7196 96.6922 13.9696C96.6922 15.2197 95.7916 15.8337 93.9905 15.8337H90.9592V15.8118Z" fill="#21A038"/>
<path d="M20.0326 4.53959C20.5597 5.21943 20.999 5.96507 21.3725 6.75456L11.2244 14.2328L6.96307 11.5573V8.35547L11.2024 11.009L20.0326 4.53959Z" fill="#21A038"/>
<path d="M2.63587 11.338C2.63587 11.1845 2.63587 11.0529 2.65783 10.8994L0.0878682 10.7678C0.0878682 10.9433 0.0659027 11.1406 0.0659027 11.3161C0.0659027 14.3863 1.31794 17.1715 3.33877 19.1891L5.1619 17.3689C3.60235 15.8337 2.63587 13.7065 2.63587 11.338Z" fill="url(#paint0_linear)"/>
<path d="M11.2024 2.78517C11.3562 2.78517 11.488 2.78517 11.6417 2.8071L11.7735 0.241256C11.5978 0.241256 11.4001 0.219326 11.2244 0.219326C8.14921 0.219326 5.35959 1.46935 3.33876 3.48694L5.1619 5.30716C6.69949 3.75011 8.85211 2.78517 11.2024 2.78517Z" fill="url(#paint1_linear)"/>
<path d="M11.2024 19.8908C11.0487 19.8908 10.9169 19.8908 10.7631 19.8689L10.6313 22.4348C10.807 22.4348 11.0047 22.4567 11.1805 22.4567C14.2556 22.4567 17.0453 21.2067 19.0661 19.1891L17.2429 17.3688C15.7054 18.9478 13.5747 19.8908 11.2024 19.8908Z" fill="url(#paint2_linear)"/>
<path d="M16.0348 4.27642L18.2094 2.67551C16.2984 1.14039 13.8603 0.197384 11.2024 0.197384V2.76323C13.0036 2.78516 14.673 3.33342 16.0348 4.27642Z" fill="url(#paint3_linear)"/>
<path d="M22.3609 11.338C22.3609 10.6581 22.295 10.0002 22.1852 9.34233L19.7909 11.1187C19.7909 11.1845 19.7909 11.2722 19.7909 11.338C19.7909 13.86 18.6926 16.1188 16.9574 17.6759L18.6926 19.5838C20.9331 17.5662 22.3609 14.6056 22.3609 11.338Z" fill="#21A038"/>
<path d="M11.2024 19.8908C8.67639 19.8908 6.41394 18.7943 4.85439 17.0618L2.94339 18.7943C4.98618 21.0531 7.92956 22.4567 11.2024 22.4567V19.8908Z" fill="url(#paint4_linear)"/>
<path d="M5.46942 5.00012L3.73415 3.09219C1.4717 5.13171 0.0659027 8.07037 0.0659027 11.338H2.63587C2.63587 8.83793 3.73415 6.55718 5.46942 5.00012Z" fill="url(#paint5_linear)"/>
</g>
<defs>
<linearGradient id="paint0_linear" x1="3.07293" y1="18.8769" x2="0.450009" y2="11.3073" gradientUnits="userSpaceOnUse">
<stop offset="0.1444" stop-color="#F2E913"/>
<stop offset="0.3037" stop-color="#E7E518"/>
<stop offset="0.5823" stop-color="#CADB26"/>
<stop offset="0.891" stop-color="#A3CD39"/>
</linearGradient>
<linearGradient id="paint1_linear" x1="4.07133" y1="3.18946" x2="10.7363" y2="0.653643" gradientUnits="userSpaceOnUse">
<stop offset="0.0592" stop-color="#0FA8E0"/>
<stop offset="0.5385" stop-color="#0099F9"/>
<stop offset="0.9234" stop-color="#0291EB"/>
</linearGradient>
<linearGradient id="paint2_linear" x1="10.4804" y1="20.268" x2="18.424" y2="18.4755" gradientUnits="userSpaceOnUse">
<stop offset="0.1226" stop-color="#A3CD39"/>
<stop offset="0.2846" stop-color="#86C339"/>
<stop offset="0.8693" stop-color="#21A038"/>
</linearGradient>
<linearGradient id="paint3_linear" x1="10.6744" y1="1.83906" x2="17.2805" y2="3.87406" gradientUnits="userSpaceOnUse">
<stop offset="0.0566" stop-color="#0291EB"/>
<stop offset="0.79" stop-color="#0C8ACB"/>
</linearGradient>
<linearGradient id="paint4_linear" x1="3.59684" y1="19.2111" x2="10.6905" y2="21.8572" gradientUnits="userSpaceOnUse">
<stop offset="0.1324" stop-color="#F2E913"/>
<stop offset="0.2977" stop-color="#EBE716"/>
<stop offset="0.5306" stop-color="#D9E01F"/>
<stop offset="0.8023" stop-color="#BBD62D"/>
<stop offset="0.9829" stop-color="#A3CD39"/>
</linearGradient>
<linearGradient id="paint5_linear" x1="2.02141" y1="11.6479" x2="4.85771" y2="4.28145" gradientUnits="userSpaceOnUse">
<stop offset="0.0698" stop-color="#A3CD39"/>
<stop offset="0.2599" stop-color="#81C55F"/>
<stop offset="0.9216" stop-color="#0FA8E0"/>
</linearGradient>
<clipPath id="clip0">
<rect width="145.412" height="24" fill="white"/>
</clipPath>
</defs>
</svg>
