<?xml version="1.0" encoding="utf-8"?>
<!-- Generator: Adobe Illustrator 15.0.0, SVG Export Plug-In . SVG Version: 6.00 Build 0)  -->
<!DOCTYPE svg PUBLIC "-//W3C//DTD SVG 1.1//EN" "http://www.w3.org/Graphics/SVG/1.1/DTD/svg11.dtd">
<svg version="1.1" id="Layer_1" xmlns="http://www.w3.org/2000/svg" xmlns:xlink="http://www.w3.org/1999/xlink" x="0px" y="0px"
	 width="100" height="100" viewBox="0 0 595.28 595.28" enable-background="new 0 0 595.28 595.28" xml:space="preserve">
<g>
	<g>
		<path fill="#BF4C49" d="M28.354,495.521v30.597c0,11.475,5.111,16.368,12.008,16.368c7.567,0,12.551-5.052,12.551-16.368v-30.597
			h6.723v30.143c0,15.82-8.343,22.243-19.506,22.243c-10.558,0-18.51-5.948-18.51-22.021v-30.364H28.354z"/>
		<path fill="#BF4C49" d="M71.95,547.073v-51.553h7.341l16.447,26.082c3.744,6.044,6.803,11.476,9.182,16.749l0.226-0.074
			c-0.606-6.877-0.764-13.152-0.764-21.104v-21.652h6.275v51.553h-6.739l-16.369-26.156c-3.592-5.737-7.03-11.622-9.562-17.212
			l-0.222,0.073c0.375,6.508,0.454,12.688,0.454,21.263v22.032H71.95z"/>
		<path fill="#BF4C49" d="M129.705,495.521v51.553h-6.729v-51.553H129.705z"/>
		<path fill="#BF4C49" d="M151.879,501.184h-15.673v-5.663h38.159v5.663h-15.751v45.89h-6.734V501.184z"/>
		<path fill="#BF4C49" d="M207.488,522.9h-19.955v18.583h22.332v5.59h-29.072v-51.553h27.933v5.59h-21.193v16.284h19.955V522.9z"/>
		<path fill="#BF4C49" d="M219.189,496.206c4.134-0.602,8.96-1.065,14.233-1.065c9.566,0,16.369,2.215,20.877,6.423
			c4.678,4.208,7.347,10.167,7.347,18.51c0,8.406-2.668,15.293-7.42,20.039c-4.904,4.82-12.851,7.425-22.86,7.425
			c-4.831,0-8.728-0.158-12.177-0.611V496.206z M225.924,541.874c1.688,0.306,4.134,0.306,6.729,0.306
			c14.232,0.084,21.953-7.952,21.953-21.874c0.084-12.161-6.803-19.892-20.877-19.892c-3.444,0-6.043,0.306-7.805,0.696V541.874z"/>
		<path fill="#BF4C49" d="M294.621,501.184h-15.688v-5.663h38.172v5.663h-15.743v45.89h-6.741V501.184z"/>
		<path fill="#BF4C49" d="M323.601,496.279c3.365-0.675,8.259-1.139,12.772-1.139c7.119,0,11.781,1.371,14.987,4.282
			c2.531,2.226,4.071,5.737,4.071,9.798c0,6.729-4.366,11.232-9.714,13.067v0.232c3.892,1.382,6.275,5.052,7.563,10.409
			c1.688,7.183,2.91,12.15,3.912,14.144h-6.897c-0.833-1.529-1.972-5.885-3.354-12.308c-1.54-7.119-4.356-9.799-10.41-10.03h-6.275
			v22.338h-6.655V496.279z M330.256,519.693h6.813c7.119,0,11.633-3.902,11.633-9.798c0-6.645-4.83-9.556-11.875-9.556
			c-3.207,0-5.432,0.307-6.571,0.602V519.693z"/>
		<path fill="#BF4C49" d="M374.236,530.863l-5.337,16.21h-6.897l17.519-51.553h8.037l17.592,51.553h-7.108l-5.506-16.21H374.236z
			 M391.144,525.663l-5.126-14.839c-1.055-3.375-1.835-6.434-2.584-9.408h-0.243c-0.686,2.975-1.529,6.191-2.531,9.323
			l-5.041,14.924H391.144z"/>
		<path fill="#BF4C49" d="M413.407,496.206c4.135-0.602,8.955-1.065,14.218-1.065c9.576,0,16.379,2.215,20.903,6.423
			c4.651,4.208,7.33,10.167,7.33,18.51c0,8.406-2.679,15.293-7.414,20.039c-4.904,4.82-12.856,7.425-22.876,7.425
			c-4.82,0-8.723-0.158-12.161-0.611V496.206z M420.147,541.874c1.666,0.306,4.113,0.306,6.718,0.306
			c14.228,0.084,21.959-7.952,21.959-21.874c0.073-12.161-6.813-19.892-20.883-19.892c-3.449,0-6.054,0.306-7.794,0.696V541.874z"/>
		<path fill="#BF4C49" d="M491.813,522.9h-19.966v18.583h22.328v5.59h-29.057v-51.553h27.917v5.59h-21.188v16.284h19.966V522.9z"/>
		<path fill="#BF4C49" d="M503.583,496.279c3.375-0.675,8.259-1.139,12.783-1.139c7.108,0,11.781,1.371,14.987,4.282
			c2.531,2.226,4.05,5.737,4.05,9.798c0,6.729-4.355,11.232-9.703,13.067v0.232c3.892,1.382,6.265,5.052,7.572,10.409
			c1.678,7.183,2.911,12.15,3.893,14.144h-6.888c-0.833-1.529-1.982-5.885-3.354-12.308c-1.529-7.119-4.366-9.799-10.41-10.03
			h-6.265v22.338h-6.666V496.279z M510.249,519.693h6.803c7.108,0,11.633-3.902,11.633-9.798c0-6.645-4.83-9.556-11.865-9.556
			c-3.206,0-5.421,0.307-6.57,0.602V519.693z"/>
		<path fill="#BF4C49" d="M544.674,538.974c2.985,1.835,7.257,3.29,11.854,3.29c6.803,0,10.779-3.522,10.779-8.722
			c0-4.82-2.753-7.657-9.714-10.252c-8.416-2.911-13.616-7.341-13.616-14.533c0-8.037,6.655-14.007,16.675-14.007
			c5.21,0,9.103,1.224,11.327,2.458l-1.846,5.505c-1.613-0.991-5.041-2.446-9.713-2.446c-7.024,0-9.725,4.208-9.725,7.72
			c0,4.746,3.153,7.119,10.262,9.861c8.712,3.449,13.078,7.584,13.078,15.146c0,7.89-5.821,14.851-17.972,14.851
			c-4.968,0-10.399-1.529-13.162-3.375L544.674,538.974z"/>
	</g>
	<linearGradient id="SVGID_1_" gradientUnits="userSpaceOnUse" x1="296.0586" y1="273.1733" x2="300.4131" y2="9.7391">
		<stop  offset="0" style="stop-color:#BF4C49"/>
		<stop  offset="0.4045" style="stop-color:#ED6A5B"/>
	</linearGradient>
	<path fill="url(#SVGID_1_)" d="M148.995,46.668v0.084h0.021l-0.021,237.69c0,125.784,62.29,172.496,144.94,172.496
		c87.431,0,152.727-50.318,152.727-174.289V91.071V46.753v-0.084H148.995z M201.698,286.241V91.071h68.871v320.201
		C229.816,400.514,201.698,361.428,201.698,286.241z M393.948,286.241c0,74.047-27.179,113.798-70.674,124.883V91.071h70.674
		V286.241z"/>
</g>
</svg>
