<svg width="100" height="34" viewBox="0 0 100 34" fill="none" xmlns="http://www.w3.org/2000/svg">
<path fill-rule="evenodd" clip-rule="evenodd" d="M14.4928 29.6596V3.61702H20.2899V22.4255C20.2572 26.0105 17.8257 28.8077 14.4928 29.6596ZM4.34783 22.4255V3.61702H10.1449V29.6596C6.81343 28.8077 4.38052 26.0105 4.34783 22.4255ZM0 0V21.4348C0.0652499 28.4368 5.55602 34 11.9455 34C19.081 34 24.5714 28.4368 24.6377 21.4348V0H0Z" fill="#DB4F48"/>
<path d="M35.6304 10.5328C35.6304 11.607 35.9239 12.4317 36.5109 13.0176C37.1087 13.5928 37.8696 13.8857 38.8152 13.8857C39.7609 13.8857 40.5217 13.5928 41.1196 13.0068C41.7174 12.4208 42.0109 11.5962 42.0109 10.5328V6.14893H40.8152V10.5762C40.8152 11.9976 40.0217 12.7681 38.8152 12.7681C37.6087 12.7681 36.8261 11.9976 36.8261 10.5762V6.14893H35.6304V10.5328ZM46.9259 13.7447V8.22148L51.252 13.7447H52.2629V6.14893H51.089V11.6504L46.7955 6.14893H45.752V13.7447H46.9259ZM57.3655 13.7447V6.14893H56.1698V13.7447H57.3655ZM60.6907 7.24488H63.2016V13.7447H64.3972V7.24488H66.919V6.14893H60.6907V7.24488ZM75.7306 13.7447V12.6487H71.3719V10.2398H74.8067V9.14382H71.3719V7.24488H75.5893V6.14893H70.1763V13.7447H75.7306ZM81.7809 13.7447C83.0092 13.7447 83.9983 13.3974 84.7701 12.6921C85.5418 11.9868 85.9331 11.0645 85.9331 9.9468C85.9331 8.82914 85.5418 7.91765 84.7701 7.21233C83.9983 6.50701 83.0092 6.14893 81.7809 6.14893H79.0961V13.7447H81.7809ZM80.2918 7.24488H81.6722C82.6179 7.24488 83.3679 7.48361 83.9005 7.97191C84.4331 8.4602 84.7048 9.11127 84.7048 9.9468C84.7048 10.7823 84.4331 11.4334 83.9005 11.9217C83.3679 12.41 82.6179 12.6487 81.6722 12.6487H80.2918V7.24488ZM35.1413 20.9896H37.6522V27.4894H38.8478V20.9896H41.3696V19.8936H35.1413V20.9896ZM45.8225 27.4894V24.2774H47.6051L49.8986 27.4894H51.3443L48.953 24.1472C49.9964 23.8976 50.6051 23.0947 50.6051 22.053C50.6051 21.4128 50.3769 20.8919 49.9312 20.4904C49.4856 20.0889 48.866 19.8936 48.0943 19.8936H44.6269V27.4894H45.8225ZM45.8225 20.9896H48.0182C48.8877 20.9896 49.3986 21.4019 49.3986 22.0964C49.3986 22.8234 48.8877 23.2249 48.0182 23.2249H45.8225V20.9896ZM55.1204 27.4894L55.9356 25.6013H59.5443L60.3704 27.4894H61.653L58.3269 19.8502H57.1747L53.8486 27.4894H55.1204ZM57.7399 21.3585L59.1312 24.5487H56.3486L57.7399 21.3585ZM67.4759 27.4894C68.7042 27.4894 69.6933 27.1421 70.4651 26.4368C71.2368 25.7315 71.6281 24.8091 71.6281 23.6915C71.6281 22.5738 71.2368 21.6623 70.4651 20.957C69.6933 20.2517 68.7042 19.8936 67.4759 19.8936H64.7912V27.4894H67.4759ZM65.9868 20.9896H67.3672C68.3129 20.9896 69.0629 21.2283 69.5955 21.7166C70.1281 22.2049 70.3998 22.8559 70.3998 23.6915C70.3998 24.527 70.1281 25.1781 69.5955 25.6664C69.0629 26.1547 68.3129 26.3934 67.3672 26.3934H65.9868V20.9896ZM80.762 27.4894V26.3934H76.4033V23.9845H79.8381V22.8885H76.4033V20.9896H80.6207V19.8936H75.2077V27.4894H80.762ZM85.3232 27.4894V24.2774H87.1058L89.3993 27.4894H90.8449L88.4536 24.1472C89.4971 23.8976 90.1058 23.0947 90.1058 22.053C90.1058 21.4128 89.8775 20.8919 89.4319 20.4904C88.9862 20.0889 88.3667 19.8936 87.5949 19.8936H84.1275V27.4894H85.3232ZM85.3232 20.9896H87.5188C88.3884 20.9896 88.8993 21.4019 88.8993 22.0964C88.8993 22.8234 88.3884 23.2249 87.5188 23.2249H85.3232V20.9896ZM96.458 27.6304C97.2949 27.6304 97.9906 27.4242 98.5449 27.0228C99.0993 26.6213 99.3819 26.0679 99.3819 25.3625C99.3384 24.5053 98.9797 23.9628 98.3058 23.6047C97.8275 23.3442 97.4906 23.214 96.9145 23.0404L96.0449 22.7908C95.8601 22.7149 95.5123 22.6064 95.371 22.5196C95.1101 22.3351 94.9253 22.1615 94.9253 21.8359C94.9253 21.2717 95.4362 20.8702 96.4797 20.8702C97.3167 20.8702 98.121 21.1089 98.8927 21.5755V20.3819C98.1862 19.9587 97.371 19.7525 96.458 19.7525C94.7514 19.7525 93.6971 20.5664 93.6971 21.8251C93.6971 22.5196 93.9254 23.0079 94.4797 23.3551C94.7623 23.5179 95.0123 23.6481 95.2406 23.7349C95.4688 23.8217 95.8058 23.9302 96.2297 24.0496L96.3819 24.093C96.871 24.234 97.0775 24.2883 97.4253 24.4511C97.5993 24.527 97.7297 24.603 97.8167 24.6789C98.0014 24.8417 98.1536 25.0804 98.1536 25.3842C98.1536 26.0896 97.3927 26.5128 96.3927 26.5128C95.871 26.5128 95.3493 26.4151 94.8275 26.2198C94.3167 26.0245 93.9036 25.7966 93.5993 25.5253V26.8166C94.3493 27.3591 95.2949 27.6304 96.458 27.6304Z" fill="black"/>
</svg>
