<svg width="74" height="26" viewBox="0 0 74 26" fill="none" xmlns="http://www.w3.org/2000/svg">
<g clip-path="url(#clip0)">
<path d="M5.03233 -0.00165749L3.77206 3.39989H21.2353L22.4956 -0.00165749H5.03233V-0.00165749ZM3.14231 5.09954L1.88204 8.50034H19.3453L20.6055 5.09954H3.14231V5.09954ZM1.25531 10.2007L-0.00495911 13.6015H17.4583L18.7178 10.2007H1.25531V10.2007Z" fill="#009FDF"/>
<path d="M37.1208 14.898V14.9701C37.919 15.2583 38.6816 15.7634 39.0811 16.0873C40.3149 17.0969 40.8601 18.4303 40.8601 20.1604C40.8601 23.0093 39.3355 25.0633 36.8308 25.7125C36.0682 25.9287 35.2701 26.0007 33.7817 26.0007H26.1967V5.16509H32.9119C34.2914 5.16509 35.2346 5.23714 36.0689 5.45257C38.5011 6.10183 40.0982 7.75989 40.0982 10.3911C40.0982 11.7973 39.59 12.9874 38.7556 13.78C38.3924 14.1403 37.8842 14.5734 37.1223 14.8973L37.1208 14.898ZM30.4064 17.0969V22.5762H33.3106C34.1812 22.5762 34.9801 22.5041 35.5608 21.9633C36.1414 21.4225 36.3952 20.7376 36.3952 19.8365C36.3952 19.1523 36.2132 18.5031 35.8507 18.0343C35.2338 17.2774 34.4712 17.0969 33.1648 17.0969H30.4057H30.4064ZM30.3694 13.4918H32.7291C33.4548 13.4918 33.818 13.4918 34.1804 13.3841C35.1613 13.0951 35.7782 12.2311 35.7782 11.0411C35.7782 9.6356 35.1251 9.022 34.1804 8.73452C33.781 8.62606 33.3823 8.5904 32.5834 8.5904H30.3694V13.4925V13.4918ZM47.175 26.0015V8.66171H41.1138V5.16583H57.9563L56.7587 8.66171H51.3862V26.0015H47.1757H47.175ZM59.2627 26.0015V5.16583H72.9111L71.7135 8.66171H63.4376V13.2763H66.8137C69.5358 13.2763 70.9516 13.9256 71.9318 14.7539C72.6944 15.4031 74.0007 16.8443 74.0007 19.6931C74.0007 22.5049 72.6582 24.0545 71.5323 24.8478C70.226 25.7482 68.8464 26.0015 66.051 26.0015H59.2634H59.2627ZM63.4369 22.5041H66.5947C67.7923 22.5041 68.518 22.2159 69.0261 21.5666C69.2798 21.2427 69.6431 20.6648 69.6431 19.5839C69.6431 18.5031 69.2798 17.7454 68.5542 17.2046C68.1193 16.8807 67.5378 16.7009 66.5577 16.7009H63.4361V22.5041H63.4369Z" fill="#0A2973"/>
</g>
<defs>
<clipPath id="clip0">
<rect width="74" height="26" fill="white"/>
</clipPath>
</defs>
</svg>
